<svg width="84" height="82" viewBox="0 0 84 82" fill="none" xmlns="http://www.w3.org/2000/svg">
<path d="M81.527 43.6288L79.8382 45.3578C79.651 45.5484 79.4014 45.6542 79.138 45.6542C78.8725 45.6542 78.6231 45.5484 78.4366 45.3578L43.5372 9.67876C43.126 9.26025 42.5813 9.02753 42.0014 9.02753C41.4206 9.02753 40.874 9.26025 40.4628 9.67876L5.56341 45.3578C5.37716 45.5484 5.12749 45.6542 4.86386 45.6542C4.59866 45.6542 4.34899 45.5484 4.16184 45.3578L2.473 43.6288C2.08656 43.2354 2.08656 42.5912 2.473 42.1978L41.2993 2.50641C41.4865 2.31325 41.7359 2.20999 42.0014 2.20999C42.2641 2.20999 42.5135 2.31325 42.7007 2.50641L81.527 42.1978C81.9135 42.5912 81.9135 43.2354 81.527 43.6288ZM70.4444 75.4975H13.5556V38.8987L41.2993 10.5339C41.4865 10.3435 41.7359 10.2375 42.0014 10.2375C42.2641 10.2375 42.5135 10.3435 42.7007 10.5339L70.4444 38.8987V75.4975ZM75.7839 78.2471C75.7839 79.0986 75.1075 79.7902 74.2771 79.7902H9.72474C8.8927 79.7902 8.21608 79.0986 8.21608 78.2471C8.21608 77.3965 8.8927 76.7066 9.72474 76.7066H74.2771C75.1075 76.7066 75.7839 77.3965 75.7839 78.2471ZM82.3633 41.3426L43.5372 1.65123C43.126 1.22996 42.5813 1 42.0014 1C41.4206 1 40.874 1.22996 40.4628 1.65123L1.63668 41.3426C0.787772 42.2095 0.787772 43.6189 1.63668 44.484L3.32552 46.2129C4.17331 47.078 5.55285 47.078 6.40064 46.2129L12.372 40.1075V75.4975H9.72474C8.24061 75.4975 7.03247 76.7298 7.03247 78.2471C7.03247 79.765 8.24061 81 9.72474 81H74.2771C75.7594 81 76.9676 79.765 76.9676 78.2471C76.9676 76.7298 75.7594 75.4975 74.2771 75.4975H71.628V40.1075L77.5994 46.2129C78.0245 46.645 78.5799 46.8614 79.138 46.8614C79.694 46.8614 80.2521 46.645 80.6747 46.2129L82.3633 44.484C83.2122 43.6189 83.2122 42.2095 82.3633 41.3426Z" fill="#595959" stroke="#595959"/>
<path d="M27.5602 67.6663C27.5602 67.7132 27.5202 67.7517 27.4713 67.7517H23.9684C23.9213 67.7517 23.881 67.7132 23.881 67.6663V59.1823C23.881 59.1354 23.9213 59.0968 23.9684 59.0968H27.4713C27.5202 59.0968 27.5602 59.1354 27.5602 59.1823V67.6663ZM27.4713 57.9697H23.9684C23.2709 57.9697 22.7061 58.5145 22.7061 59.1823V67.6663C22.7061 68.3349 23.2709 68.8788 23.9684 68.8788H27.4713C28.168 68.8788 28.7355 68.3349 28.7355 67.6663V59.1823C28.7355 58.5145 28.168 57.9697 27.4713 57.9697Z" fill="#595959" stroke="#595959"/>
<path d="M36.0005 67.6008C36.0005 67.6503 35.9605 67.6909 35.9133 67.6909H32.412C32.3631 67.6909 32.322 67.6503 32.322 67.6008V49.5486C32.322 49.4983 32.3631 49.4603 32.412 49.4603H35.9133C35.9605 49.4603 36.0005 49.4983 36.0005 49.5486V67.6008ZM35.9133 48.2725H32.412C31.7146 48.2725 31.147 48.8438 31.147 49.5486V67.6008C31.147 68.3054 31.7146 68.8785 32.412 68.8785H35.9133C36.609 68.8785 37.1764 68.3054 37.1764 67.6008V49.5486C37.1764 48.8438 36.609 48.2725 35.9133 48.2725Z" fill="#595959" stroke="#595959"/>
<path d="M44.2033 53.1732V67.6151C44.2033 67.664 44.1583 67.7042 44.0998 67.7042H39.8972C39.8384 67.7042 39.7923 67.664 39.7923 67.6151V53.1732C39.7923 53.1243 39.8384 53.0832 39.8972 53.0832H44.0998C44.1583 53.0832 44.2033 53.1243 44.2033 53.1732ZM38.3823 53.1732V67.6151C38.3823 68.312 39.0602 68.8789 39.8972 68.8789H44.0998C44.9357 68.8789 45.6176 68.312 45.6176 67.6151V53.1732C45.6176 52.4764 44.9357 51.9092 44.0998 51.9092H39.8972C39.0602 51.9092 38.3823 52.4764 38.3823 53.1732Z" fill="#595959" stroke="#595959"/>
<path d="M47.9997 47.1056C47.9997 47.0596 48.0397 47.0197 48.0886 47.0197H51.591C51.6399 47.0197 51.6783 47.0596 51.6783 47.1056V67.6193C51.6783 67.668 51.6399 67.7081 51.591 67.7081H48.0886C48.0397 67.7081 47.9997 67.668 47.9997 67.6193V47.1056ZM48.0886 68.8789H51.591C52.2875 68.8789 52.8531 68.3139 52.8531 67.6193V47.1056C52.8531 46.4137 52.2875 45.8486 51.591 45.8486H48.0886C47.392 45.8486 46.8237 46.4137 46.8237 47.1056V67.6193C46.8237 68.3139 47.392 68.8789 48.0886 68.8789Z" fill="#595959" stroke="#595959"/>
<path d="M56.4428 39.8259C56.4428 39.7777 56.4803 39.738 56.529 39.738H60.0298C60.0787 39.738 60.1189 39.7777 60.1189 39.8259V67.6295C60.1189 67.6778 60.0787 67.7176 60.0298 67.7176H56.529C56.4803 67.7176 56.4428 67.6778 56.4428 67.6295V39.8259ZM56.529 68.8792H60.0298C60.7269 68.8792 61.2941 68.3186 61.2941 67.6295V39.8259C61.2941 39.1376 60.7269 38.5762 60.0298 38.5762H56.529C55.8327 38.5762 55.2646 39.1376 55.2646 39.8259V67.6295C55.2646 68.3186 55.8327 68.8792 56.529 68.8792Z" fill="#595959" stroke="#595959"/>
</svg>
